<svg width="110" height="110" viewBox="0 0 110 110" fill="none" xmlns="http://www.w3.org/2000/svg">
<g filter="url(#filter0_d_532_560)">
<circle cx="52" cy="49" r="24" fill="white"/>
</g>
<path fill-rule="evenodd" clip-rule="evenodd" d="M40.5983 40.0983C41.3016 39.3951 42.2554 39 43.25 39H60.75C61.7446 39 62.6984 39.3951 63.4017 40.0983C64.1049 40.8016 64.5 41.7554 64.5 42.75V46.5C64.5 46.8315 64.3683 47.1495 64.1339 47.3839C63.8995 47.6183 63.5815 47.75 63.25 47.75C62.9185 47.75 62.6005 47.8817 62.3661 48.1161C62.1317 48.3505 62 48.6685 62 49C62 49.3315 62.1317 49.6495 62.3661 49.8839C62.6005 50.1183 62.9185 50.25 63.25 50.25C63.9404 50.25 64.5 50.8096 64.5 51.5V55.25C64.5 56.2446 64.1049 57.1984 63.4017 57.9016C62.6984 58.6049 61.7446 59 60.75 59H43.25C42.2554 59 41.3016 58.6049 40.5983 57.9016C39.8951 57.1984 39.5 56.2446 39.5 55.25V51.5C39.5 50.8096 40.0596 50.25 40.75 50.25C41.0815 50.25 41.3995 50.1183 41.6339 49.8839C41.8683 49.6495 42 49.3315 42 49C42 48.6685 41.8683 48.3505 41.6339 48.1161C41.3995 47.8817 41.0815 47.75 40.75 47.75C40.0596 47.75 39.5 47.1904 39.5 46.5V42.75C39.5 41.7554 39.8951 40.8016 40.5983 40.0983ZM57 56.5V55.25C57 54.5596 56.4404 54 55.75 54C55.0596 54 54.5 54.5596 54.5 55.25V56.5H43.25C42.9185 56.5 42.6005 56.3683 42.3661 56.1339C42.1317 55.8995 42 55.5815 42 55.25V52.5355C42.5224 52.3508 43.0024 52.0509 43.4017 51.6516C44.1049 50.9484 44.5 49.9946 44.5 49C44.5 48.0054 44.1049 47.0516 43.4017 46.3484C43.0024 45.9491 42.5224 45.6492 42 45.4645V42.75C42 42.4185 42.1317 42.1005 42.3661 41.8661C42.6005 41.6317 42.9185 41.5 43.25 41.5H54.5V42.75C54.5 43.4404 55.0596 44 55.75 44C56.4404 44 57 43.4404 57 42.75V41.5H60.75C61.0815 41.5 61.3995 41.6317 61.6339 41.8661C61.8683 42.1005 62 42.4185 62 42.75V45.4645C61.4776 45.6492 60.9976 45.9491 60.5984 46.3484C59.8951 47.0516 59.5 48.0054 59.5 49C59.5 49.9946 59.8951 50.9484 60.5984 51.6516C60.9976 52.0509 61.4776 52.3508 62 52.5355V55.25C62 55.5815 61.8683 55.8995 61.6339 56.1339C61.3995 56.3683 61.0815 56.5 60.75 56.5H57ZM55.75 46.5C56.4404 46.5 57 47.0596 57 47.75V50.25C57 50.9404 56.4404 51.5 55.75 51.5C55.0596 51.5 54.5 50.9404 54.5 50.25V47.75C54.5 47.0596 55.0596 46.5 55.75 46.5Z" fill="#0DB76F"/>
<defs>
<filter id="filter0_d_532_560" x="0" y="0" width="110" height="110" filterUnits="userSpaceOnUse" color-interpolation-filters="sRGB">
<feFlood flood-opacity="0" result="BackgroundImageFix"/>
<feColorMatrix in="SourceAlpha" type="matrix" values="0 0 0 0 0 0 0 0 0 0 0 0 0 0 0 0 0 0 127 0" result="hardAlpha"/>
<feOffset dx="3" dy="6"/>
<feGaussianBlur stdDeviation="15.5"/>
<feComposite in2="hardAlpha" operator="out"/>
<feColorMatrix type="matrix" values="0 0 0 0 0 0 0 0 0 0 0 0 0 0 0 0 0 0 0.1 0"/>
<feBlend mode="normal" in2="BackgroundImageFix" result="effect1_dropShadow_532_560"/>
<feBlend mode="normal" in="SourceGraphic" in2="effect1_dropShadow_532_560" result="shape"/>
</filter>
</defs>
</svg>
