<svg width="96" height="96" viewBox="0 0 96 96" fill="none" xmlns="http://www.w3.org/2000/svg">
<g filter="url(#filter0_d_532_180)">
<circle cx="47" cy="43" r="24" fill="white"/>
<path d="M33.839 40.565V47H32.6203V43.646L32.6885 41.7642H32.669L30.8848 47H29.783L28.0085 41.7642H27.989L28.0573 43.646V47H26.8385V40.565H28.7885L29.9488 44.075L30.3583 45.5277H30.3778L30.797 44.0847L31.9475 40.565H33.839ZM35.648 47V40.565H40.4742V41.6472H36.9935V43.2462H39.7332V44.2797H36.9935V45.9177H40.6107V47H35.648Z" fill="#F3508C"/>
<path d="M44.4396 40.565C45.4471 40.565 46.2271 40.8445 46.7796 41.4035C47.3321 41.956 47.6083 42.749 47.6083 43.7825C47.6083 44.8095 47.3321 45.6025 46.7796 46.1615C46.2271 46.7205 45.4471 47 44.4396 47H41.9533V40.565H44.4396ZM44.3713 45.9275C44.9823 45.9275 45.4406 45.7455 45.7461 45.3815C46.0581 45.011 46.2141 44.478 46.2141 43.7825C46.2141 43.087 46.0581 42.5572 45.7461 42.1932C45.4406 41.8227 44.9823 41.6375 44.3713 41.6375H43.2988V45.9275H44.3713ZM50.4421 40.565V47H49.0966V40.565H50.4421ZM57.759 45.2255C57.6355 45.6415 57.4405 45.9892 57.174 46.2687C56.9075 46.5482 56.5923 46.7562 56.2283 46.8927C55.8643 47.0293 55.4645 47.0975 55.029 47.0975C54.392 47.0975 53.8395 46.9643 53.3715 46.6977C52.91 46.4312 52.5525 46.051 52.299 45.557C52.052 45.063 51.9285 44.4715 51.9285 43.7825C51.9285 43.0935 52.052 42.502 52.299 42.008C52.5525 41.514 52.91 41.1337 53.3715 40.8672C53.8395 40.6007 54.3855 40.4675 55.0095 40.4675C55.4515 40.4675 55.8513 40.5292 56.2088 40.6527C56.5663 40.7697 56.8685 40.9517 57.1155 41.1987C57.369 41.4457 57.5543 41.7577 57.6713 42.1347L56.4525 42.6515C56.342 42.2615 56.173 41.9852 55.9455 41.8227C55.718 41.6537 55.4255 41.5692 55.068 41.5692C54.717 41.5692 54.4083 41.6537 54.1418 41.8227C53.8818 41.9917 53.6803 42.242 53.5373 42.5735C53.3943 42.8985 53.3228 43.3015 53.3228 43.7825C53.3228 44.257 53.3878 44.66 53.5178 44.9915C53.6543 45.323 53.8525 45.5732 54.1125 45.7422C54.3725 45.9112 54.691 45.9957 55.068 45.9957C55.419 45.9957 55.7213 45.9015 55.9748 45.713C56.2348 45.5245 56.4168 45.2385 56.5208 44.855L57.759 45.2255ZM64.628 47H63.2337L62.6975 45.4302H60.2307L59.6945 47H58.3197L60.6695 40.565H62.2782L64.628 47ZM60.533 44.4357H62.3952L61.4592 41.6278L60.533 44.4357ZM66.4255 45.5082C66.6855 45.5082 66.8903 45.5797 67.0398 45.7227C67.1958 45.8657 67.2738 46.0575 67.2738 46.298C67.2738 46.545 67.1958 46.74 67.0398 46.883C66.8903 47.0195 66.6855 47.0878 66.4255 47.0878C66.1655 47.0878 65.9575 47.0195 65.8015 46.883C65.652 46.74 65.5773 46.545 65.5773 46.298C65.5773 46.0575 65.652 45.8657 65.8015 45.7227C65.9575 45.5797 66.1655 45.5082 66.4255 45.5082Z" fill="#313038"/>
</g>
<defs>
<filter id="filter0_d_532_180" x="0" y="0" width="96" height="96" filterUnits="userSpaceOnUse" color-interpolation-filters="sRGB">
<feFlood flood-opacity="0" result="BackgroundImageFix"/>
<feColorMatrix in="SourceAlpha" type="matrix" values="0 0 0 0 0 0 0 0 0 0 0 0 0 0 0 0 0 0 127 0" result="hardAlpha"/>
<feOffset dx="1" dy="5"/>
<feGaussianBlur stdDeviation="12"/>
<feComposite in2="hardAlpha" operator="out"/>
<feColorMatrix type="matrix" values="0 0 0 0 0.325 0 0 0 0 0.123229 0 0 0 0 0.123229 0 0 0 0.09 0"/>
<feBlend mode="normal" in2="BackgroundImageFix" result="effect1_dropShadow_532_180"/>
<feBlend mode="normal" in="SourceGraphic" in2="effect1_dropShadow_532_180" result="shape"/>
</filter>
</defs>
</svg>
