<svg width="38" height="40" viewBox="0 0 38 40" fill="none" xmlns="http://www.w3.org/2000/svg">
<path fill-rule="evenodd" clip-rule="evenodd" d="M5.37206 8.02526L6.53278 6.61001L6.55785 6.73421C6.88532 8.3563 7.05026 10.0065 7.05026 11.6607V13.2746L7.36147 12.2469C7.66918 11.2308 7.79771 10.1697 7.74143 9.11028L7.56775 5.84102L10.4139 3.0214L10.8964 2.60319C11.9365 1.70156 13.197 1.08578 14.5523 0.817261C15.7541 0.579147 16.9849 0.519517 18.2044 0.640329L18.9524 0.714432L19.8137 0.856649C20.1572 0.913353 20.3472 1.2831 20.1915 1.5916L19.7575 2.4516C19.3982 3.16345 19.2111 3.9484 19.2111 4.74428V5.50848C19.2111 5.89958 19.2596 6.28921 19.3553 6.66864L19.4608 7.08677C19.635 7.77713 20.0216 8.39676 20.567 8.85987C21.1948 9.39294 21.9943 9.68596 22.8211 9.68596H23.0923L22.5748 10.4549L22.4994 10.567C22.2111 10.9954 22.0573 11.4987 22.0573 12.0135C22.0573 12.6719 22.2308 13.319 22.5605 13.8906L22.7453 14.211C22.9756 14.6103 23.2586 14.9773 23.5868 15.3024L24.0708 15.7819C24.6157 16.3217 25.2984 16.7047 26.0459 16.8898C26.6566 17.0411 27.2936 17.0561 27.9109 16.9338L28.2671 16.8632L28.6761 17.9436C28.9181 18.583 29.2955 19.1637 29.783 19.6465C30.15 20.0101 30.5737 20.3127 31.0379 20.5426L32.9245 21.4771L30.2424 23.521C29.7902 23.8656 29.2922 24.1469 28.7625 24.3568L26.9734 25.0657H27.7825C28.4462 25.0657 29.1056 24.9597 29.7353 24.7518C30.1344 24.62 30.5121 24.4317 30.8567 24.1927L32.2563 23.2221C32.7009 22.9138 33.1175 22.5676 33.5012 22.1874L34.0666 21.6273C34.1637 21.5311 34.2953 21.4771 34.4325 21.4771H35.594C35.8779 21.4771 36.1554 21.3939 36.3916 21.2379C36.6616 21.0596 36.9787 20.9645 37.3032 20.9645H37.5382C37.7052 20.9645 37.8406 21.0986 37.8406 21.2641V21.9898V23.9865C37.8406 24.702 37.7326 25.4134 37.5202 26.0972L37.0416 27.6381C36.8848 28.1432 36.6721 28.6295 36.4075 29.0883L34.7357 31.9866L32.7849 34.4989C32.3627 35.0428 31.8639 35.5238 31.3037 35.9274L30.0348 36.8416C29.5555 37.1869 28.9898 37.3953 28.3992 37.4441L26.8432 37.5725C26.442 37.6057 26.0873 37.8436 25.9073 38.2003C25.764 38.4841 25.4942 38.6846 25.179 38.7414L22.8335 39.1638L19.7286 39.4202H18.0275C17.2666 39.4202 16.5082 39.3346 15.7668 39.1651C14.2734 38.8237 12.8262 38.3081 11.4554 37.6291L10.8875 37.3478C9.88316 36.8503 8.91711 36.2803 7.99718 35.6423L6.79152 34.8062L6.14204 34.2272C4.86146 33.0854 3.80859 31.7156 3.03811 30.189C2.43983 29.0037 2.04938 27.7261 1.88345 26.411L1.61667 24.2967L2.00854 24.8144C2.26326 25.1508 2.56872 25.4465 2.91418 25.6909L4.2041 26.6037L4.03309 26.1802C3.80273 25.6096 3.51319 25.0643 3.16913 24.5531L1.99483 23.3897C1.24045 22.6424 0.713248 21.7 0.473356 20.6702L0.252189 19.7208C0.128502 19.1898 0.128502 18.6379 0.252189 18.1069L0.75231 15.9599C0.810897 15.7084 0.896705 15.4639 1.00824 15.2306L1.67364 13.839C2.66703 11.7614 3.90874 9.80948 5.37206 8.02526ZM12.6168 7.98594C12.3915 7.29459 12.5398 6.50812 13.0684 5.93792L13.3709 5.61161L13.4484 5.53483C14.2384 4.75213 15.2604 4.24015 16.365 4.07363C17.1452 3.9929 17.8473 4.54529 17.9446 5.31647L17.9511 5.36759C18.0023 5.77336 17.9987 6.18408 17.9403 6.58889L17.8849 6.97306C17.8088 7.50069 17.6222 8.00672 17.3371 8.45869L17.0527 8.90936C16.6938 9.47828 16.0644 9.8239 15.3872 9.82393C15.0842 9.82395 14.7853 9.75452 14.5139 9.62111C14.5274 9.64276 14.5407 9.66438 14.5538 9.68597C14.8019 10.0956 15.7329 10.3726 16.365 10.455C16.5643 10.4809 16.7152 10.4905 16.8542 10.4994C17.1559 10.5186 17.402 10.5342 17.9682 10.7063C17.5161 10.7959 16.8012 10.8631 16.1113 10.7732L16.0879 10.7701C15.4091 10.6817 14.4049 10.551 14.0363 9.9423L14.0005 9.88298C13.8248 9.59177 13.6277 9.26512 13.3173 8.98081C13.27 8.94399 13.2243 8.90513 13.1803 8.86434C13.0589 8.76873 12.9219 8.67975 12.7651 8.60081L12.5771 8.50599C11.8419 8.13486 10.5701 7.4929 10.1552 7.37901C10.2868 7.41515 10.5059 7.46176 10.7694 7.51782C11.3222 7.63542 12.0704 7.79459 12.6168 7.98594ZM18.6937 21.9582V22.2419C18.6937 22.5901 18.8333 22.924 19.0818 23.1702C19.3303 23.4164 19.6673 23.5547 20.0188 23.5547H20.353C20.6242 23.5547 20.893 23.5034 21.1448 23.4036L21.315 23.3362C21.7985 23.1446 22.212 22.8122 22.5008 22.383L22.6695 22.1323C22.9402 21.73 23.0385 21.2377 22.9428 20.7636C22.8716 20.4107 22.6965 20.0866 22.4396 19.8321L22.3474 19.7408C21.996 19.3927 21.5194 19.1971 21.0223 19.1971C20.5253 19.1971 20.0487 19.3927 19.6972 19.7408L19.4987 19.9375C19.1425 20.2904 18.8997 20.7399 18.8009 21.2293L18.7328 21.5664C18.7068 21.6954 18.6937 21.8266 18.6937 21.9582ZM14.295 35.718V35.8274C14.295 36.1755 14.4347 36.5094 14.6832 36.7556C14.9317 37.0018 15.2687 37.1401 15.6201 37.1401H15.9544C16.2256 37.1401 16.4944 37.0889 16.7462 36.9891L17.1832 36.8159C17.4942 36.6927 17.765 36.487 17.966 36.2216C18.2655 35.826 18.3885 35.3262 18.3064 34.8384L18.2923 34.7543C18.2178 34.3113 17.9692 33.9104 17.6065 33.6409C17.307 33.4184 16.9388 33.2952 16.5643 33.2952C16.1054 33.2952 15.6652 33.4758 15.3406 33.7973L15.1039 34.0319C14.9109 34.223 14.7503 34.4438 14.6283 34.6856L14.4631 35.0129C14.3526 35.2318 14.295 35.4733 14.295 35.718ZM6.87207 23.8302L7.00565 23.4314C7.03533 23.3428 7.07139 23.2564 7.11354 23.1729C7.28033 22.8424 7.53537 22.5706 7.84441 22.3822C6.27912 22.5719 5.44894 23.2687 5.19976 23.6636C5.70284 22.8662 7.09194 21.3687 10.4767 21.9975C10.5866 22.0247 10.739 22.0257 10.9335 21.9933C11.346 21.9248 11.862 21.7216 12.3645 21.475C12.8627 21.2305 13.3282 20.9532 13.6341 20.7512C13.3899 21.2237 13.0743 21.6988 12.5942 21.9344C12.235 22.1106 11.8493 22.2758 11.4831 22.3872C12.346 23.1782 13.4237 23.6668 14.4633 23.9537C15.6343 24.2768 16.7365 24.3382 17.3835 24.2973C17.2321 24.3069 17.0478 24.328 16.8393 24.3519C16.0796 24.439 15.0004 24.5628 14.0363 24.2967C13.2826 24.0888 12.611 23.8366 11.9706 23.4229C11.9987 23.5586 12.0108 23.6975 12.0064 23.8367L12.0033 23.9326C11.9801 24.6605 11.6033 25.3325 10.9916 25.7364L10.8886 25.8045C10.5761 26.0108 10.2209 26.1453 9.84918 26.1979L9.18288 26.2922C8.80278 26.346 8.41508 26.2999 8.05857 26.1587L7.94248 26.1127C7.53358 25.9506 7.19631 25.6496 6.99113 25.2636C6.75628 24.8217 6.71329 24.3041 6.87207 23.8302ZM28.4623 28.931L28.6395 28.931C28.9757 28.931 29.3072 29.0085 29.6079 29.1575L30.349 29.5245C30.5837 29.6407 30.7984 29.7943 30.9839 29.9782C31.5769 30.5661 31.8094 31.3978 31.6467 32.1757C32.1754 31.7763 32.7304 31.4291 33.442 31.2176C32.8395 31.6819 32.3756 32.1517 31.9313 32.6018C31.1408 33.4024 30.4124 34.1402 29.0763 34.6716C28.8698 34.7582 28.6577 34.8325 28.4411 34.8938L28.4257 34.8981C28.3164 34.9313 28.2035 34.9633 28.0867 34.994L27.7497 35.0894L27.6973 35.1024C27.6015 35.1262 27.5057 35.1417 27.4107 35.1496C26.9329 35.2449 26.3985 35.323 25.7962 35.3814C23.5402 36.5076 21.4337 37.6315 20.1136 38.3623C20.5777 38.1054 21.0958 37.7254 21.6754 37.3005C22.5123 36.6867 23.4774 35.9791 24.5923 35.4127C24.3111 35.4347 23.9674 35.4273 23.6259 35.42L23.6252 35.42C23.4554 35.4163 23.2861 35.4127 23.1253 35.4127C22.8665 35.4127 21.6209 35.4506 21.2001 35.5882C21.6417 35.4439 22.3902 35.2379 23.2126 35.0845C24.0048 34.9368 24.8839 34.8343 25.6287 34.891C25.84 34.8757 26.0429 34.8559 26.238 34.832C25.8293 34.5461 25.5411 34.0912 25.4915 33.5503C25.4449 33.0429 25.4935 32.5312 25.6348 32.0413L25.6525 31.9799C25.8413 31.3253 26.1595 30.7143 26.5887 30.1825L27.059 29.5996C27.3999 29.1771 27.9163 28.9311 28.4623 28.931ZM6.04573 15.5918L5.99831 15.7333C5.93906 15.9102 5.95511 16.1033 6.04274 16.2682C6.11931 16.4123 6.24517 16.5246 6.39775 16.5851L6.44107 16.6022C6.57411 16.6549 6.71878 16.6721 6.86062 16.652L7.10926 16.6169C7.24799 16.5972 7.38052 16.5471 7.49712 16.47L7.53557 16.4447C7.76382 16.2939 7.90445 16.0432 7.9131 15.7715L7.91383 15.7489C7.91693 15.6514 7.90025 15.5542 7.86478 15.4632C7.76714 15.2128 7.53845 15.0358 7.26954 15.0025L7.13027 14.9853C7.00061 14.9692 6.86902 14.9793 6.74339 15.0148L6.61497 15.0512C6.38747 15.1155 6.19769 15.2716 6.09187 15.4812C6.07385 15.5169 6.05843 15.5539 6.04573 15.5918ZM19.469 12.3079C19.4384 12.7265 18.7952 13.7335 18.1572 14.0969C17.4737 14.4863 16.1833 14.4487 14.0363 14.0436C16.365 14.8126 17.5763 15.0192 18.4151 14.5414C19.2673 14.0559 19.4699 13.5309 19.4699 12.7619L19.469 12.3079ZM19.469 12.3079C19.4705 12.2868 19.4705 12.2672 19.4688 12.2493L19.469 12.3079ZM20.0147 29.2452C20.3453 29.0331 20.6278 28.7546 20.8702 28.4471C18.718 29.9977 16.9096 29.0877 16.2892 28.4731C16.5106 28.9324 16.7818 29.3856 17.2011 29.6796C17.7775 30.0837 18.5324 30.1961 20.0147 29.2452ZM5.15913 29.9648C5.13172 30.3639 5.11344 30.63 5.14944 30.9169C5.15792 30.9845 5.16663 31.0539 5.177 31.1257C5.21111 31.3623 5.26496 31.619 5.40546 31.8881C5.54627 32.1578 5.76601 32.4249 6.11242 32.6995C6.71221 33.1748 7.42027 33.3468 8.05801 33.5016L8.05859 33.5018L8.05915 33.5019C8.16697 33.5281 8.27277 33.5538 8.37571 33.5804C8.53567 33.6217 8.69495 33.6552 8.85471 33.6889C9.42268 33.8083 9.99682 33.9291 10.6292 34.4078C10.0569 33.5573 9.18789 33.294 8.42882 33.0978C8.31268 33.0678 8.19818 33.0397 8.08543 33.012C7.44522 32.8548 6.93912 32.6981 6.43569 32.2991C6.13524 32.061 5.96687 31.8475 5.8651 31.6526C5.76304 31.4571 5.71985 31.2652 5.68928 31.0532C5.68077 30.9943 5.67338 30.9331 5.66575 30.87C5.61898 30.4833 5.4978 30.1923 5.18733 29.5259C5.17801 29.6899 5.16808 29.8345 5.15913 29.9648ZM13.163 28.3255C13.0686 28.2521 12.9739 28.1786 12.8788 28.1063C12.4307 27.7659 11.9053 27.4964 11.4489 27.6056C11.9353 27.4892 12.3876 27.4669 12.8015 27.5806C13.4831 27.7679 13.8706 28.4365 14.1984 29.0574C13.8319 28.8451 13.4974 28.5852 13.163 28.3255ZM16.7886 17.8595C16.3945 17.7021 16.0003 17.5445 15.5887 17.4415C16.0778 17.9477 16.6376 18.4833 17.3449 18.4755C17.7744 18.4708 18.2026 18.3249 18.6372 18.0792C18.2293 18.3098 17.649 18.1955 17.1232 17.9919C17.0116 17.9487 16.9004 17.9042 16.7892 17.8598L16.7886 17.8595ZM12.4838 12.2493C12.3194 12.575 12.0592 12.8102 11.7998 13.0446C11.526 13.292 11.2532 13.5385 11.0953 13.8896C11.0409 14.0104 10.978 14.162 10.9031 14.3523C10.9031 14.0912 10.8614 13.8408 10.8223 13.6058C10.8089 13.5252 10.7957 13.4462 10.7847 13.3693C10.6655 12.539 11.6373 12.2493 12.4838 12.2493ZM11.7754 36.6446C11.4496 36.6058 11.1579 36.5711 10.9314 36.2919C11.6516 35.8511 12.5862 35.6672 12.7491 36.4901C12.7928 36.7109 12.8554 36.952 13.0013 37.1861C12.6021 36.8881 12.3754 36.7591 12.2245 36.7198C12.07 36.6797 11.9194 36.6618 11.7754 36.6446ZM20.6605 2.86724L20.6612 2.86483C20.6964 2.74327 20.7309 2.62438 20.7635 2.50876C20.3204 5.84104 22.2298 8.23345 23.351 8.66066C19.1921 7.93359 20.0449 4.9913 20.6605 2.86724ZM23.8685 9.68598C23.1785 10.6259 22.5754 12.4423 23.8685 14.0436C24.8867 15.3045 25.6544 15.573 28.6355 15.3373C28.6944 15.3366 28.7444 15.3325 28.7845 15.3252C28.7343 15.3294 28.6846 15.3334 28.6355 15.3373C27.9986 15.3443 26.3245 14.9387 24.9034 13.5309C23.2915 11.934 23.5664 10.455 23.8685 9.68598ZM36.2881 20.1955C33.4419 20.4518 28.7846 20.1955 29.5608 15.5816C29.6723 15.7657 29.7785 15.9816 29.8947 16.2178C30.5872 17.6258 31.6352 19.7565 36.2881 20.1955Z" fill="#B55119"/>
</svg>
